<?xml version="1.0" encoding="UTF-8"?>
<svg version="1.1" xmlns="http://www.w3.org/2000/svg" width="512" height="512">
<path d="M0 0 C1.32056283 -0.00679667 1.32056283 -0.00679667 2.6678037 -0.01373065 C5.61830574 -0.02639174 8.56862358 -0.02475309 11.51914978 -0.02310181 C13.63519529 -0.02908652 15.75123861 -0.03589193 17.86727905 -0.04345703 C23.62022015 -0.06114318 29.37310175 -0.06581389 35.1260674 -0.0670886 C38.72687793 -0.06851079 42.32767337 -0.07278198 45.92848015 -0.07808304 C58.51079643 -0.09660124 71.09307032 -0.10475257 83.67539978 -0.10317993 C95.36709405 -0.10198231 107.05860258 -0.12300539 118.75024992 -0.15466726 C128.81003684 -0.18092966 138.86976356 -0.19154287 148.92958444 -0.19026911 C154.92735625 -0.18976183 160.92496349 -0.19531308 166.92270088 -0.21662521 C172.5788979 -0.23617245 178.2347764 -0.23602067 183.89098549 -0.22159195 C185.95150474 -0.2195221 188.01204478 -0.22409386 190.07252884 -0.23631287 C206.87039202 -0.32935915 223.44384317 1.31907587 239.19468689 7.57992554 C239.97134705 7.87842407 240.7480072 8.17692261 241.54820251 8.48446655 C268.84491191 19.25131378 290.92370121 39.27661656 303.00718689 66.07992554 C313.78003613 90.90261643 314.4398725 122.06461511 308.25718689 148.26742554 C307.95917175 149.55254028 307.95917175 149.55254028 307.65513611 150.86361694 C301.40482583 177.09619257 290.80526619 201.87274049 274.25718689 223.26742554 C273.56367126 224.18394897 272.87015564 225.10047241 272.15562439 226.04476929 C243.76101622 262.25587072 201.57177765 284.29750817 156.25718689 290.26742554 C149.30979276 291.10421196 142.47752305 291.40753616 135.48326111 291.38095093 C134.45767593 291.38109695 133.43209076 291.38124298 132.37542725 291.38139343 C129.02088732 291.3807026 125.66640449 291.37294941 122.31187439 291.36508179 C119.97204112 291.36321466 117.63220746 291.36179215 115.29237366 291.36079407 C109.16041467 291.35699213 103.02847971 291.34718186 96.89653015 291.33609009 C90.62873153 291.32582584 84.360929 291.32128574 78.09312439 291.31625366 C65.81446806 291.30555735 53.53582948 291.28850906 41.25718689 291.26742554 C41.17435455 291.91097488 41.09152222 292.55452423 41.00617981 293.21757507 C39.27590975 305.49143719 36.54122452 317.57047151 33.95249939 329.68539429 C33.42678705 332.15391122 32.90114328 334.62244277 32.37556458 337.09098816 C31.27716452 342.24470991 30.1755814 347.39774282 29.0721283 352.55038452 C27.80222869 358.48083699 26.54182896 364.41325566 25.28570569 370.34663981 C24.06866237 376.09292418 22.84172209 381.8370604 21.61118698 387.58046913 C21.092409 390.00819597 20.57653012 392.43654429 20.06367874 394.86553001 C19.34512279 398.26463037 18.61526381 401.66112083 17.88267517 405.05722046 C17.57233337 406.54358002 17.57233337 406.54358002 17.25572205 408.05996704 C15.36032224 416.74566863 13.47387783 425.21998858 6.33140564 431.01351929 C0.23246696 434.70044832 -4.56469098 435.70923488 -11.58045959 435.65560913 C-12.86481903 435.66349457 -12.86481903 435.66349457 -14.17512512 435.67153931 C-16.98824134 435.68467654 -19.80078549 435.67602276 -22.61390686 435.66586304 C-24.58014026 435.66788576 -26.54637292 435.67079885 -28.51260376 435.67456055 C-32.62725489 435.67897556 -36.7417102 435.67258 -40.8563385 435.65853882 C-46.11637456 435.6414588 -51.37595095 435.65128594 -56.63597012 435.66925621 C-60.69473701 435.68012588 -64.75339596 435.67663292 -68.81216621 435.66887283 C-70.75094215 435.66687904 -72.68972806 435.66930111 -74.62849236 435.67631149 C-77.34451415 435.6839772 -80.05980441 435.67225 -82.77577209 435.65560913 C-83.5682283 435.66168182 -84.36068451 435.66775452 -85.17715454 435.67401123 C-91.39165288 435.60389184 -96.78767229 434.38048198 -101.94984436 430.68930054 C-108.75203477 423.60575432 -110.02406984 418.49717861 -109.93294716 408.82640266 C-109.63033599 403.16205048 -108.4851822 397.78639907 -107.23377991 392.26522827 C-106.82977117 390.40639322 -106.82977117 390.40639322 -106.41760063 388.51000595 C-105.67966731 385.11628372 -104.92513233 381.72644948 -104.16758084 378.33706069 C-103.35590615 374.69123069 -102.56018421 371.04191758 -101.76257324 367.39299011 C-100.38760309 361.11267971 -99.00304002 354.83454973 -97.61177063 348.55783081 C-95.59068753 339.43917481 -93.58514093 330.3171556 -91.58385372 321.19413686 C-89.1580701 310.1363077 -86.7297598 299.07903926 -84.29328918 288.02355957 C-84.10707441 287.17860463 -83.92085964 286.33364969 -83.729002 285.46309006 C-83.54339022 284.62088563 -83.35777843 283.7786812 -83.16654205 282.91095543 C-78.92321053 263.65690065 -74.70744117 244.39702592 -70.52015686 225.13070679 C-70.37958965 224.48394415 -70.23902243 223.83718151 -70.0941956 223.17082 C-68.83728863 217.3873276 -67.58073723 211.60375798 -66.32456684 205.82010555 C-64.42063056 197.05565806 -62.51110808 188.29244129 -60.598526 179.52987671 C-55.77614137 157.43127066 -50.96327369 135.33090807 -46.21588326 113.21606827 C-43.81015854 102.00953443 -41.39515825 90.80502658 -38.97378349 79.60186386 C-37.53523337 72.94359699 -36.10252373 66.28417601 -34.6842804 59.62155151 C-33.37217409 53.45932874 -32.04587401 47.30033656 -30.70861816 41.14352417 C-30.22190798 38.88987127 -29.7405933 36.63504528 -29.2651062 34.3789978 C-28.61400756 31.29325045 -27.94374159 28.21226588 -27.26869202 25.13168335 C-27.08589754 24.24219624 -26.90310307 23.35270912 -26.71476936 22.43626785 C-24.77699315 13.78611747 -21.00627561 7.41237814 -13.74281311 2.26742554 C-9.26951831 -0.06441202 -4.93070935 -0.01862322 0 0 Z M86.25718689 89.26742554 C82.88464235 102.42262005 79.84347221 115.64603865 76.83531189 128.88851929 C76.32548014 131.12772744 75.81552931 133.36690849 75.3054657 135.60606384 C74.24550207 140.26092793 73.18668794 144.91605143 72.12876892 149.57138062 C70.76991829 155.55069284 69.40856241 161.52943133 68.04642105 167.50799465 C66.99731359 172.11353275 65.94928718 176.71931628 64.90161896 181.32518196 C64.3995137 183.53217121 63.89711856 185.73909453 63.39443207 187.94595146 C62.6968959 191.00916588 62.00076184 194.07269545 61.30503845 197.13632202 C61.09625565 198.05201462 60.88747284 198.96770721 60.67236328 199.91114807 C59.69113595 203.55569107 59.69113595 203.55569107 59.25718689 207.26742554 C67.45574471 207.36093311 75.65407232 207.4315931 83.85303497 207.47467422 C87.6619375 207.49537196 91.47046993 207.52335397 95.27915955 207.56918335 C98.96858243 207.61328958 102.65765397 207.63669572 106.34732056 207.64693451 C107.74086017 207.65421183 109.13438497 207.6684143 110.527771 207.69034576 C130.84688121 207.99685309 149.06453645 202.09444448 164.25718689 188.26742554 C165.17371033 187.4437146 166.09023376 186.62000366 167.03453064 185.77133179 C181.49374783 172.10548728 190.89189312 153.22691735 191.63218689 133.14242554 C191.14254245 120.15620356 186.32247122 108.2182544 176.84703064 99.31039429 C164.94280545 89.91988181 152.26466946 88.9641685 137.72203064 89.07211304 C136.23273917 89.07585017 134.74344521 89.07869383 133.25415039 89.08068848 C129.36287976 89.08826986 125.471762 89.1078701 121.58055115 89.13009644 C117.59843513 89.15067427 113.61629405 89.15971555 109.63414001 89.16976929 C101.84175314 89.19112204 94.04949156 89.2251903 86.25718689 89.26742554 Z " fill="#000000" transform="translate(123.74281311035156,-0.267425537109375)"/>
<path d="M0 0 C16.69019296 7.97824273 28.66447043 28.34710381 34.7890625 45.16699219 C39.38457794 58.79027677 41.3773278 72.10452396 41.3125 86.5 C41.30686035 87.81935547 41.3012207 89.13871094 41.29541016 90.49804688 C40.94971078 125.91446349 29.1367206 163.38230526 8 192 C6.87464844 193.56814453 6.87464844 193.56814453 5.7265625 195.16796875 C-5.94547649 210.99129605 -20.42126331 225.38105175 -37 236 C-37.66177246 236.42571289 -38.32354492 236.85142578 -39.00537109 237.29003906 C-66.36511855 254.63445296 -98.36236462 265.23168398 -130.9140625 265.11352539 C-131.9783699 265.11367142 -133.04267731 265.11381744 -134.13923645 265.1139679 C-137.63451217 265.11327482 -141.12973367 265.10551087 -144.625 265.09765625 C-147.05737275 265.09578992 -149.48974588 265.09436703 -151.92211914 265.09336853 C-158.30728198 265.0895603 -164.69242188 265.07974452 -171.07757568 265.06866455 C-177.59989105 265.05841397 -184.12221014 265.0538631 -190.64453125 265.04882812 C-203.42969726 265.03812068 -216.2148474 265.02125836 -229 265 C-229.11663498 266.08302399 -229.23326996 267.16604797 -229.35343933 268.28189087 C-230.04030463 273.74959395 -231.19598944 279.10346518 -232.3449707 284.48974609 C-232.70131088 286.17915565 -232.70131088 286.17915565 -233.06484985 287.9026947 C-233.84812175 291.61040466 -234.63655151 295.31699146 -235.42578125 299.0234375 C-235.97531329 301.61120824 -236.52480714 304.19898709 -237.07426453 306.78677368 C-238.22561848 312.20578866 -239.38056859 317.62403001 -240.53686523 323.04199219 C-241.86846997 329.28196415 -243.1908129 335.52385096 -244.50897342 341.76667535 C-245.64578515 347.14835216 -246.78953631 352.52852497 -247.93849248 357.90762198 C-248.62250117 361.1106361 -249.30284813 364.31435054 -249.97774696 367.51929855 C-250.73231957 371.09855187 -251.4982197 374.67520689 -252.2668457 378.25146484 C-252.48466202 379.29698013 -252.70247833 380.34249542 -252.92689514 381.41969299 C-256.77270038 399.1169904 -256.77270038 399.1169904 -262.9375 404 C-263.58589844 404.53625 -264.23429687 405.0725 -264.90234375 405.625 C-270.1765378 409.08219982 -274.76096686 409.29721819 -280.88598633 409.29052734 C-281.77119461 409.29724457 -282.65640289 409.30396179 -283.56843567 409.31088257 C-286.48969159 409.32985258 -289.4107176 409.33378638 -292.33203125 409.3359375 C-294.36838372 409.34236649 -296.40473527 409.34909493 -298.44108582 409.35610962 C-302.70887391 409.36808016 -306.97658107 409.37179071 -311.24438477 409.37060547 C-316.7018309 409.37040238 -322.1587557 409.39769514 -327.61607838 409.43214989 C-331.82238631 409.45443452 -336.02856913 409.45844251 -340.23493004 409.45738602 C-342.24629194 409.45973997 -344.25765739 409.46855188 -346.26896095 409.48405075 C-349.08828395 409.50374063 -351.90648741 409.49786072 -354.72583008 409.48583984 C-355.54948059 409.49707886 -356.3731311 409.50831787 -357.22174072 409.51989746 C-363.46028195 409.45261793 -368.81430419 407.9346201 -373.49429035 403.62347984 C-379.06796994 397.28757833 -380.58373208 391.64806254 -380.43359375 383.42578125 C-379.75034101 374.18113157 -378.16896444 362.33792888 -374 354 C-372.85112305 353.9906543 -371.70224609 353.98130859 -370.51855469 353.97167969 C-366.20177308 353.93140631 -361.88567655 353.86554941 -357.56933594 353.79248047 C-355.71135345 353.76448524 -353.85325661 353.74316555 -351.99511719 353.72900391 C-335.74071324 353.5977789 -322.90663533 351.75470099 -310.3125 340.625 C-299.24439121 328.06120084 -296.73363491 314.15897705 -293.375 298.14453125 C-292.94266393 296.11333604 -292.50954404 294.08230753 -292.07568359 292.05143738 C-290.93944348 286.72439038 -289.81213416 281.39549636 -288.68725586 276.06604004 C-286.88971813 267.55631123 -285.07912348 259.04935555 -283.26739502 250.54263878 C-282.64189187 247.59902429 -282.02056916 244.65455265 -281.39990234 241.70991516 C-279.14984641 231.07963001 -276.73109036 220.51740042 -274 210 C-272.42290504 209.99120064 -272.42290504 209.99120064 -270.81394958 209.98222351 C-260.79927856 209.9244659 -250.78481373 209.85144019 -240.77035427 209.76428509 C-235.62450732 209.71996973 -230.47873254 209.68063382 -225.33276367 209.65356445 C-160.4624455 209.30164388 -104.72945746 196.54679472 -56.6875 149.9375 C-27.67016322 119.93443628 -10.9122159 81.54369813 -3 41 C-2.76539063 39.83339844 -2.53078125 38.66679687 -2.2890625 37.46484375 C-0.18181296 25.14201492 -0.33185642 12.46754875 0 0 Z " fill="#000000" transform="translate(457,103)"/>
</svg>
